<svg xmlns="http://www.w3.org/2000/svg" xmlns:xlink="http://www.w3.org/1999/xlink" viewBox="0 0 430 430" width="430" height="430" preserveAspectRatio="xMidYMid meet" style="width: 100%; height: 100%; transform: translate3d(0px, 0px, 0px); content-visibility: visible;"><defs><clipPath id="__lottie_element_16"><rect width="430" height="430" x="0" y="0"/></clipPath><clipPath id="__lottie_element_18"><path d="M0,0 L430,0 L430,430 L0,430z"/></clipPath><g id="__lottie_element_26"><g transform="matrix(1,0,0,1,215,215)" opacity="1" style="display: block;"><g opacity="1" transform="matrix(1,0,0,1,0,0)"><path fill="rgb(242,139,168)" fill-opacity="1" d=" M144.94500732421875,14.956000328063965 C164.93699645996094,-5.035999774932861 174.97900390625,-31.257999420166016 174.97900390625,-57.4379997253418 C174.97900390625,-83.66000366210938 164.93699645996094,-109.88300323486328 144.94500732421875,-129.875 C127.88300323486328,-146.9550018310547 106.29499816894531,-156.7469940185547 84.03800201416016,-159.25 C54.13800048828125,-162.61300659179688 23.04400062561035,-152.8209991455078 0.11900000274181366,-129.875 C0.11900000274181366,-129.875 -0.004000000189989805,-129.7519989013672 -0.004000000189989805,-129.7519989013672 C-0.004000000189989805,-129.7519989013672 -0.12999999523162842,-129.875 -0.12999999523162842,-129.875 C-20.121999740600586,-149.86700439453125 -46.34400177001953,-159.9080047607422 -72.52400207519531,-159.9080047607422 C-98.74600219726562,-159.9080047607422 -124.96399688720703,-149.86700439453125 -144.95599365234375,-129.875 C-184.98500061035156,-89.88700103759766 -184.98500061035156,-25.031999588012695 -144.95599365234375,14.956000328063965 C-144.95599365234375,14.956000328063965 -0.004000000189989805,159.9080047607422 -0.004000000189989805,159.9080047607422 C-0.004000000189989805,159.9080047607422 144.94500732421875,14.956000328063965 144.94500732421875,14.956000328063965z"/></g></g></g><mask id="__lottie_element_26_1" mask-type="alpha"><use xmlns:ns1="http://www.w3.org/1999/xlink" ns1:href="#__lottie_element_26"/></mask></defs><g clip-path="url(#__lottie_element_16)"><g clip-path="url(#__lottie_element_18)" transform="matrix(1,0,0,1,0,0)" opacity="1" style="display: block;"><g transform="matrix(1,0,0,1,215,215)" opacity="1" style="display: block;"><g opacity="1" transform="matrix(1,0,0,1,0,0)"><path class="tertiary" fill="rgb(242,139,168)" fill-opacity="1" d=" M144.94500732421875,14.956000328063965 C164.93699645996094,-5.035999774932861 174.97900390625,-31.257999420166016 174.97900390625,-57.4379997253418 C174.97900390625,-83.66000366210938 164.93699645996094,-109.88300323486328 144.94500732421875,-129.875 C127.88300323486328,-146.9550018310547 106.29499816894531,-156.7469940185547 84.03800201416016,-159.25 C54.13800048828125,-162.61300659179688 23.04400062561035,-152.8209991455078 0.11900000274181366,-129.875 C0.11900000274181366,-129.875 -0.004000000189989805,-129.7519989013672 -0.004000000189989805,-129.7519989013672 C-0.004000000189989805,-129.7519989013672 -0.12999999523162842,-129.875 -0.12999999523162842,-129.875 C-20.121999740600586,-149.86700439453125 -46.34400177001953,-159.9080047607422 -72.52400207519531,-159.9080047607422 C-98.74600219726562,-159.9080047607422 -124.96399688720703,-149.86700439453125 -144.95599365234375,-129.875 C-184.98500061035156,-89.88700103759766 -184.98500061035156,-25.031999588012695 -144.95599365234375,14.956000328063965 C-144.95599365234375,14.956000328063965 -0.004000000189989805,159.9080047607422 -0.004000000189989805,159.9080047607422 C-0.004000000189989805,159.9080047607422 144.94500732421875,14.956000328063965 144.94500732421875,14.956000328063965z"/></g></g><g mask="url(#__lottie_element_26_1)" style="mix-blend-mode: multiply; display: block;"><g transform="matrix(1,0,0,1,127.50599670410156,213.50100708007812)" opacity="0.5"><g opacity="1" transform="matrix(1,0,0,1,0,0)"><path class="tertiary" fill="rgb(242,139,168)" fill-opacity="1" d=" M87.35299682617188,-175.06399536132812 C87.35299682617188,-175.06399536132812 87.49400329589844,-174.92799377441406 87.49400329589844,-174.92799377441406 C87.49400329589844,-174.92799377441406 87.49400329589844,212.91700744628906 87.49400329589844,212.91700744628906 C87.49400329589844,212.91700744628906 83.01100158691406,215.99899291992188 83.01100158691406,215.99899291992188 C83.01100158691406,215.99899291992188 -115.89700317382812,22.51099967956543 -115.89700317382812,22.51099967956543 C-130.96299743652344,7.855999946594238 -141.98399353027344,-9.24899959564209 -148.95599365234375,-27.486000061035156 C-148.95599365234375,-27.486000061035156 -143.18299865722656,-27.486000061035156 -143.18299865722656,-27.486000061035156 C-143.18299865722656,-27.486000061035156 -143.18299865722656,-36.566001892089844 -143.18299865722656,-36.566001892089844 C-143.18299865722656,-36.566001892089844 -152.06700134277344,-36.566001892089844 -152.06700134277344,-36.566001892089844 C-166.5070037841797,-84.10800170898438 -154.41799926757812,-137.6439971923828 -115.75700378417969,-175.06399536132812 C-87.7030029296875,-202.35299682617188 -50.952999114990234,-215.99899291992188 -14.20199966430664,-215.99899291992188 C22.548999786376953,-215.99899291992188 59.29899978637695,-202.35299682617188 87.35299682617188,-175.06399536132812z"/></g></g></g><g transform="matrix(1,0,0,1,0,0)" opacity="1" style="display: block;"><g opacity="1" transform="matrix(1,0,0,1,89.625,190)"><g opacity="1" transform="matrix(1,0,0,1,0,0)"><path stroke-linecap="round" stroke-linejoin="round" fill-opacity="0" class="primary" stroke="rgb(18,19,49)" stroke-opacity="1" stroke-width="7" d=" M-44.375,0 C-44.375,0 125.375,0 125.375,0"/></g></g><g opacity="1" transform="matrix(1,0,0,1,340.3290100097656,190)"><g opacity="1" transform="matrix(1,0,0,1,0,0)"><path stroke-linecap="round" stroke-linejoin="round" fill-opacity="0" class="primary" stroke="rgb(18,19,49)" stroke-opacity="1" stroke-width="7" d=" M44.32899856567383,0 C44.32899856567383,0 -125.3290023803711,0 -125.3290023803711,0"/></g></g><g opacity="1" transform="matrix(1,0,0,1,215,295)"><g opacity="1" transform="matrix(1,0,0,1,0,0)"><path stroke-linecap="round" stroke-linejoin="round" fill-opacity="0" class="primary" stroke="rgb(18,19,49)" stroke-opacity="1" stroke-width="7" d=" M0,80 C0,80 0,-105 0,-105"/></g></g><g opacity="1" transform="matrix(1,0,0,1,215,125.1500015258789)"><g opacity="1" transform="matrix(1,0,0,1,0,0)"><path stroke-linecap="round" stroke-linejoin="round" fill-opacity="0" class="primary" stroke="rgb(18,19,49)" stroke-opacity="1" stroke-width="7" d=" M0,64.8499984741211 C0,64.8499984741211 0,-39.849998474121094 0,-39.849998474121094"/></g></g></g><g transform="matrix(1,0,0,1,0,0)" opacity="1" style="display: block;"><g opacity="1" transform="matrix(1,0,0,1,166.197998046875,190)"><g opacity="1" transform="matrix(1,0,0,1,0,0)"><path class="secondary" fill="rgb(249,201,192)" fill-opacity="1" d=" M-31.197999954223633,-29.886999130249023 C-31.197999954223633,-29.886999130249023 -31.197999954223633,29.886999130249023 -31.197999954223633,29.886999130249023 C-31.197999954223633,41.23699951171875 -19.07900047302246,48.474998474121094 -9.086000442504883,43.09400177001953 C-9.086000442504883,43.09400177001953 31.197999954223633,21.402000427246094 31.197999954223633,21.402000427246094 C31.197999954223633,21.402000427246094 31.090999603271484,-21.459999084472656 31.090999603271484,-21.459999084472656 C31.090999603271484,-21.459999084472656 -9.086000442504883,-43.09400177001953 -9.086000442504883,-43.09400177001953 C-19.07900047302246,-48.474998474121094 -31.197999954223633,-41.23699951171875 -31.197999954223633,-29.886999130249023z"/></g></g><g opacity="1" transform="matrix(1,0,0,1,263.802001953125,190)"><g opacity="1" transform="matrix(1,0,0,1,0,0)"><path class="secondary" fill="rgb(249,201,192)" fill-opacity="1" d=" M31.197999954223633,29.886999130249023 C31.197999954223633,41.23699951171875 19.07900047302246,48.474998474121094 9.086000442504883,43.09400177001953 C9.086000442504883,43.09400177001953 -31.197999954223633,21.402000427246094 -31.197999954223633,21.402000427246094 C-31.197999954223633,21.402000427246094 -31.090999603271484,-21.459999084472656 -31.090999603271484,-21.459999084472656 C-31.090999603271484,-21.459999084472656 9.086000442504883,-43.09400177001953 9.086000442504883,-43.09400177001953 C19.07900047302246,-48.474998474121094 31.197999954223633,-41.23699951171875 31.197999954223633,-29.886999130249023 C31.197999954223633,-29.886999130249023 31.197999954223633,29.886999130249023 31.197999954223633,29.886999130249023z"/></g></g><g opacity="0.5" transform="matrix(1,0,0,1,263.802001953125,197.06900024414062)" style="mix-blend-mode: multiply;"><g opacity="1" transform="matrix(1,0,0,1,0,0)"><path class="secondary" fill="rgb(249,201,192)" fill-opacity="1" d=" M-13.802000045776367,-37.8390007019043 C-13.802000045776367,-37.8390007019043 -31.090999603271484,-28.52899932861328 -31.090999603271484,-28.52899932861328 C-31.090999603271484,-28.52899932861328 -31.197999954223633,14.333000183105469 -31.197999954223633,14.333000183105469 C-31.197999954223633,14.333000183105469 9.086000442504883,36.025001525878906 9.086000442504883,36.025001525878906 C19.07900047302246,41.40599822998047 31.197999954223633,34.167999267578125 31.197999954223633,22.81800079345703 C31.197999954223633,22.81800079345703 31.197999954223633,2.818000078201294 31.197999954223633,2.818000078201294 C31.197999954223633,14.168000221252441 19.07900047302246,21.4060001373291 9.086000442504883,16.024999618530273 C9.086000442504883,16.024999618530273 -12.225000381469727,4.550000190734863 -12.225000381469727,4.550000190734863 C-13.196999549865723,4.0269999504089355 -13.802000045776367,3.01200008392334 -13.802000045776367,1.9079999923706055 C-13.802000045776367,1.9079999923706055 -13.802000045776367,-37.8390007019043 -13.802000045776367,-37.8390007019043z"/></g></g><g opacity="0.5" transform="matrix(1,0,0,1,166.197998046875,213.16799926757812)" style="mix-blend-mode: multiply;"><g opacity="1" transform="matrix(1,0,0,1,0,0)"><path class="secondary" fill="rgb(249,201,192)" fill-opacity="1" d=" M-31.197999954223633,6.7179999351501465 C-31.197999954223633,6.7179999351501465 -31.197999954223633,-13.281999588012695 -31.197999954223633,-13.281999588012695 C-31.197999954223633,-1.9320000410079956 -19.07900047302246,5.306000232696533 -9.086000442504883,-0.07500000298023224 C-9.086000442504883,-0.07500000298023224 31.148000717163086,-21.73900032043457 31.148000717163086,-21.73900032043457 C31.148000717163086,-21.73900032043457 31.197999954223633,-1.7660000324249268 31.197999954223633,-1.7660000324249268 C31.197999954223633,-1.7660000324249268 -9.086000442504883,19.924999237060547 -9.086000442504883,19.924999237060547 C-19.07900047302246,25.305999755859375 -31.197999954223633,18.06800079345703 -31.197999954223633,6.7179999351501465z"/></g></g><g opacity="1" transform="matrix(1,0,0,1,215,189.9080047607422)"><g opacity="1" transform="matrix(1,0,0,1,0,0)"><path class="secondary" fill="rgb(249,201,192)" fill-opacity="1" d=" M-10,-25 C-15.52299976348877,-25 -20,-20.523000717163086 -20,-15 C-20,-15 -20,15 -20,15 C-20,20.523000717163086 -15.52299976348877,25 -10,25 C-10,25 10,25 10,25 C15.52299976348877,25 20,20.523000717163086 20,15 C20,15 20,-15 20,-15 C20,-20.523000717163086 15.52299976348877,-25 10,-25 C10,-25 -10,-25 -10,-25z"/></g></g><g opacity="0.5" transform="matrix(1,0,0,1,205,189.9080047607422)" style="mix-blend-mode: multiply;"><g opacity="1" transform="matrix(1,0,0,1,0,0)"><path class="secondary" fill="rgb(249,201,192)" fill-opacity="1" d=" M-10,15 C-10,20.523000717163086 -5.5229997634887695,25 0,25 C0,25 10,25 10,25 C10,25 10,-25 10,-25 C10,-25 0,-25 0,-25 C-5.5229997634887695,-25 -10,-20.523000717163086 -10,-15 C-10,-15 -10,15 -10,15z"/></g></g></g><g transform="matrix(1,0,0,1,0,0)" opacity="1" style="display: block;"><g opacity="1" transform="matrix(1,0,0,1,215,189.9080047607422)"><g opacity="1" transform="matrix(1,0,0,1,0,0)"><path stroke-linecap="round" stroke-linejoin="round" fill-opacity="0" class="primary" stroke="rgb(18,19,49)" stroke-opacity="1" stroke-width="7" d=" M-10,-25 C-15.52299976348877,-25 -20,-20.523000717163086 -20,-15 C-20,-15 -20,15 -20,15 C-20,20.523000717163086 -15.52299976348877,25 -10,25 C-10,25 10,25 10,25 C15.52299976348877,25 20,20.523000717163086 20,15 C20,15 20,-15 20,-15 C20,-20.523000717163086 15.52299976348877,-25 10,-25 C10,-25 -10,-25 -10,-25z"/></g></g><g opacity="1" transform="matrix(1,0,0,1,166.197998046875,190)"><g opacity="1" transform="matrix(1,0,0,1,0,0)"><path stroke-linecap="round" stroke-linejoin="round" fill-opacity="0" class="primary" stroke="rgb(18,19,49)" stroke-opacity="1" stroke-width="7" d=" M31.090999603271484,-21.459999084472656 C31.090999603271484,-21.459999084472656 -9.086000442504883,-43.09400177001953 -9.086000442504883,-43.09400177001953 C-19.07900047302246,-48.474998474121094 -31.197999954223633,-41.23699951171875 -31.197999954223633,-29.886999130249023 C-31.197999954223633,-29.886999130249023 -31.197999954223633,29.886999130249023 -31.197999954223633,29.886999130249023 C-31.197999954223633,41.23699951171875 -19.07900047302246,48.474998474121094 -9.086000442504883,43.09400177001953 C-9.086000442504883,43.09400177001953 31.197999954223633,21.402000427246094 31.197999954223633,21.402000427246094"/></g></g><g opacity="1" transform="matrix(1,0,0,1,263.802001953125,190)"><g opacity="1" transform="matrix(1,0,0,1,0,0)"><path stroke-linecap="round" stroke-linejoin="round" fill-opacity="0" class="primary" stroke="rgb(18,19,49)" stroke-opacity="1" stroke-width="7" d=" M-31.197999954223633,21.402000427246094 C-31.197999954223633,21.402000427246094 9.086000442504883,43.09400177001953 9.086000442504883,43.09400177001953 C19.07900047302246,48.474998474121094 31.197999954223633,41.23699951171875 31.197999954223633,29.886999130249023 C31.197999954223633,29.886999130249023 31.197999954223633,-29.886999130249023 31.197999954223633,-29.886999130249023 C31.197999954223633,-41.23699951171875 19.07900047302246,-48.474998474121094 9.086000442504883,-43.09400177001953 C9.086000442504883,-43.09400177001953 -31.090999603271484,-21.459999084472656 -31.090999603271484,-21.459999084472656"/></g></g></g><g transform="matrix(1,0,0,1,215,215)" opacity="1" style="display: block;"><g opacity="1" transform="matrix(1,0,0,1,0,0)"><path stroke-linecap="round" stroke-linejoin="round" fill-opacity="0" class="primary" stroke="rgb(18,19,49)" stroke-opacity="1" stroke-width="7" d=" M144.94500732421875,14.956000328063965 C164.93699645996094,-5.035999774932861 174.97900390625,-31.257999420166016 174.97900390625,-57.4379997253418 C174.97900390625,-83.66000366210938 164.93699645996094,-109.88300323486328 144.94500732421875,-129.875 C127.88300323486328,-146.9550018310547 106.29499816894531,-156.7469940185547 84.03800201416016,-159.25 C54.13800048828125,-162.61300659179688 23.04400062561035,-152.8209991455078 0.11900000274181366,-129.875 C0.11900000274181366,-129.875 -0.004000000189989805,-129.7519989013672 -0.004000000189989805,-129.7519989013672 C-0.004000000189989805,-129.7519989013672 -0.12999999523162842,-129.875 -0.12999999523162842,-129.875 C-20.121999740600586,-149.86700439453125 -46.34400177001953,-159.9080047607422 -72.52400207519531,-159.9080047607422 C-98.74600219726562,-159.9080047607422 -124.96399688720703,-149.86700439453125 -144.95599365234375,-129.875 C-184.98500061035156,-89.88700103759766 -184.98500061035156,-25.031999588012695 -144.95599365234375,14.956000328063965 C-144.95599365234375,14.956000328063965 -0.004000000189989805,159.9080047607422 -0.004000000189989805,159.9080047607422 C-0.004000000189989805,159.9080047607422 144.94500732421875,14.956000328063965 144.94500732421875,14.956000328063965z"/></g></g></g></g></svg>