<svg xmlns="http://www.w3.org/2000/svg" xmlns:xlink="http://www.w3.org/1999/xlink" viewBox="0 0 430 430" width="430" height="430" preserveAspectRatio="xMidYMid meet" style="width: 100%; height: 100%; transform: translate3d(0px, 0px, 0px); content-visibility: visible;"><defs><clipPath id="__lottie_element_16"><rect width="430" height="430" x="0" y="0"/></clipPath><clipPath id="__lottie_element_18"><path d="M0,0 L430,0 L430,430 L0,430z"/></clipPath><clipPath id="__lottie_element_23"><path d="M0,0 L430,0 L430,430 L0,430z"/></clipPath><clipPath id="__lottie_element_27"><path d="M0,0 L430,0 L430,430 L0,430z"/></clipPath><g id="__lottie_element_30"><g clip-path="url(#__lottie_element_31)" transform="matrix(1,0,0,1,0,10)" opacity="1" style="display: block;"><g transform="matrix(0.7071067690849304,-0.7071067690849304,0.7071067690849304,0.7071067690849304,211.443603515625,204.69808959960938)" opacity="1" style="display: block;"><g opacity="1" transform="matrix(1,0,0,1,0,0)"><path class="primary" fill="rgb(255,199,56)" fill-opacity="1" d=" M-33.957000732421875,56.98400115966797 C-33.957000732421875,56.98400115966797 114.21499633789062,56.68199920654297 114.21499633789062,56.68199920654297 C114.21499633789062,56.68199920654297 114.21499633789062,85.71700286865234 114.21499633789062,85.71700286865234 C114.21499633789062,85.71700286865234 145.63099670410156,85.71700286865234 145.63099670410156,85.71700286865234 C145.63099670410156,85.71700286865234 145.63099670410156,67.67500305175781 145.63099670410156,67.67500305175781 C145.63099670410156,67.67500305175781 177.04800415039062,67.67500305175781 177.04800415039062,67.67500305175781 C177.04800415039062,67.67500305175781 177.04800415039062,85.71700286865234 177.04800415039062,85.71700286865234 C177.04800415039062,85.71700286865234 208.46499633789062,85.71700286865234 208.46499633789062,85.71700286865234 C208.46499633789062,85.71700286865234 208.46499633789062,56.68199920654297 208.46499633789062,56.68199920654297 C208.46499633789062,56.68199920654297 221.43499755859375,56.60900115966797 221.43499755859375,56.60900115966797 C227.56900024414062,56.60900115966797 232.54200744628906,51.637001037597656 232.54200744628906,45.50199890136719 C232.54200744628906,45.50199890136719 231.1280059814453,-0.17499999701976776 231.1280059814453,-0.17499999701976776 C231.1280059814453,-6.309999942779541 226.15499877929688,-11.282999992370605 220.02099609375,-11.282999992370605 C220.02099609375,-11.282999992370605 -35.37099838256836,-10.907999992370605 -35.37099838256836,-10.907999992370605"/></g></g><g transform="matrix(0.7071067690849304,-0.7071067690849304,0.7071067690849304,0.7071067690849304,211.443603515625,204.69808959960938)" opacity="1" style="display: none;"><g opacity="1" transform="matrix(1,0,0,1,0,0)"><path class="primary" fill="rgb(255,199,56)" fill-opacity="1" d=" M-36.78499984741211,61.933998107910156 C-36.78499984741211,61.933998107910156 111.38600158691406,61.63100051879883 111.38600158691406,61.63100051879883 C111.38600158691406,61.63100051879883 111.38600158691406,90.66699981689453 111.38600158691406,90.66699981689453 C111.38600158691406,90.66699981689453 142.80299377441406,90.66699981689453 142.80299377441406,90.66699981689453 C142.80299377441406,90.66699981689453 142.80299377441406,72.625 142.80299377441406,72.625 C142.80299377441406,72.625 174.22000122070312,72.625 174.22000122070312,72.625 C174.22000122070312,72.625 174.22000122070312,90.66699981689453 174.22000122070312,90.66699981689453 C174.22000122070312,90.66699981689453 205.63600158691406,90.66600036621094 205.63600158691406,90.66600036621094 C205.63600158691406,90.66600036621094 205.63600158691406,61.63100051879883 205.63600158691406,61.63100051879883 C205.63600158691406,61.63100051879883 218.60699462890625,61.558998107910156 218.60699462890625,61.558998107910156 C224.74200439453125,61.558998107910156 229.71400451660156,56.58599853515625 229.71400451660156,50.45100021362305 C229.71400451660156,50.45100021362305 231.12899780273438,-0.17499999701976776 231.12899780273438,-0.17499999701976776 C231.12899780273438,-6.309999942779541 226.15499877929688,-11.282999992370605 220.02099609375,-11.282999992370605 C220.02099609375,-11.282999992370605 -35.37099838256836,-10.907999992370605 -35.37099838256836,-10.907999992370605"/></g></g><g transform="matrix(0.7071067690849304,-0.7071067690849304,-0.7071067690849304,-0.7071067690849304,221.54391479492188,216.44540405273438)" opacity="1" style="display: none;"><g opacity="1" transform="matrix(1,0,0,1,0,0)"><path class="primary" fill="rgb(255,199,56)" fill-opacity="1" d=" M-37.617000579833984,20.98699951171875 C-37.617000579833984,20.98699951171875 112.92900085449219,20.496999740600586 112.92900085449219,20.496999740600586 C112.92900085449219,20.496999740600586 112.92900085449219,20.5 112.92900085449219,20.5 C112.92900085449219,20.5 144.3459930419922,20.5 144.3459930419922,20.5 C144.3459930419922,20.5 144.3459930419922,20.49799919128418 144.3459930419922,20.49799919128418 C144.3459930419922,20.49799919128418 175.76300048828125,20.49799919128418 175.76300048828125,20.49799919128418 C175.76300048828125,20.49799919128418 175.76300048828125,20.5 175.76300048828125,20.5 C175.76300048828125,20.5 207.1790008544922,20.5 207.1790008544922,20.5 C207.1790008544922,20.5 207.1790008544922,20.496999740600586 207.1790008544922,20.496999740600586 C207.1790008544922,20.496999740600586 220.14999389648438,20.496999740600586 220.14999389648438,20.496999740600586 C226.28500366210938,20.496999740600586 231.1320037841797,16.52400016784668 231.1320037841797,10.388999938964844 C231.1320037841797,10.388999938964844 231.2570037841797,6.324999809265137 231.2570037841797,6.324999809265137 C231.2570037841797,0.1899999976158142 226.28399658203125,-4.7829999923706055 220.14999389648438,-4.7829999923706055 C220.14999389648438,-4.7829999923706055 -37.617000579833984,-4.293000221252441 -37.617000579833984,-4.293000221252441"/></g></g></g></g><clipPath id="__lottie_element_31"><path d="M0,0 L430,0 L430,430 L0,430z"/></clipPath><clipPath id="__lottie_element_41"><path d="M0,0 L430,0 L430,430 L0,430z"/></clipPath><clipPath id="__lottie_element_45"><path d="M0,0 L430,0 L430,430 L0,430z"/></clipPath><g id="__lottie_element_48"><g clip-path="url(#__lottie_element_49)" transform="matrix(1,0,0,1,2.75,9.5)" opacity="1" style="display: block;"><g transform="matrix(0.7071067690849304,-0.7071067690849304,0.7071067690849304,0.7071067690849304,211.443603515625,204.69808959960938)" opacity="1" style="display: block;"><path class="primary" fill="rgb(255,199,56)" fill-opacity="1" d=" M-83.70600128173828,-30.30699920654297 C-83.70600128173828,-30.30699920654297 -74.43399810791016,-19.19300079345703 -74.51300048828125,7.677999973297119 C-74.59700012207031,36.138999938964844 -83.70600128173828,44.20000076293945 -83.70600128173828,44.20000076293945 C-83.70600128173828,44.20000076293945 -47.90700149536133,44.736000061035156 -47.90700149536133,44.736000061035156 C-40.98400115966797,44.736000061035156 -35.37099838256836,39.12200164794922 -35.37099838256836,32.19900131225586 C-35.37099838256836,32.19900131225586 -35.37099838256836,32.19900131225586 -35.37099838256836,32.19900131225586 C-35.37099838256836,32.19900131225586 -35.37099838256836,-17.236000061035156 -35.37099838256836,-17.236000061035156 C-35.37099838256836,-17.236000061035156 -35.37099838256836,-17.236000061035156 -35.37099838256836,-17.236000061035156 C-35.37099838256836,-24.159000396728516 -40.98400115966797,-29.77199935913086 -47.90700149536133,-29.77199935913086 C-47.90700149536133,-29.77199935913086 -83.70600128173828,-30.30699920654297 -83.70600128173828,-30.30699920654297z"/><g opacity="1" transform="matrix(1,0,0,1,0,0)"/></g><g transform="matrix(0.7071067690849304,-0.7071067690849304,0.7071067690849304,0.7071067690849304,211.443603515625,204.69808959960938)" opacity="1" style="display: none;"><path class="primary" fill="rgb(255,199,56)" fill-opacity="1" d=" M-83.70600128173828,-30.30699920654297 C-83.70600128173828,-30.30699920654297 -74.43399810791016,-19.19300079345703 -74.51300048828125,7.677999973297119 C-74.59700012207031,36.138999938964844 -83.70600128173828,44.20000076293945 -83.70600128173828,44.20000076293945 C-83.70600128173828,44.20000076293945 -47.90700149536133,44.736000061035156 -47.90700149536133,44.736000061035156 C-40.98400115966797,44.736000061035156 -35.37099838256836,39.12200164794922 -35.37099838256836,32.19900131225586 C-35.37099838256836,32.19900131225586 -35.37099838256836,32.19900131225586 -35.37099838256836,32.19900131225586 C-35.37099838256836,32.19900131225586 -35.37099838256836,-17.236000061035156 -35.37099838256836,-17.236000061035156 C-35.37099838256836,-17.236000061035156 -35.37099838256836,-17.236000061035156 -35.37099838256836,-17.236000061035156 C-35.37099838256836,-24.159000396728516 -40.98400115966797,-29.77199935913086 -47.90700149536133,-29.77199935913086 C-47.90700149536133,-29.77199935913086 -83.70600128173828,-30.30699920654297 -83.70600128173828,-30.30699920654297z"/><g opacity="1" transform="matrix(1,0,0,1,0,0)"/></g><g transform="matrix(0.7071067690849304,-0.7071067690849304,-0.7071067690849304,-0.7071067690849304,221.54391479492188,216.44540405273438)" opacity="1" style="display: none;"><path class="primary" fill="rgb(255,199,56)" fill-opacity="1" d=" M-75.7509994506836,-5.204999923706055 C-75.7509994506836,-5.204999923706055 -75.13200378417969,0.6010000109672546 -75.22000122070312,7.146999835968018 C-75.30400085449219,13.333999633789062 -75.70600128173828,20.11400032043457 -75.70600128173828,20.11400032043457 C-75.70600128173828,20.11400032043457 -47.862998962402344,19.94300079345703 -47.862998962402344,19.94300079345703 C-40.939998626708984,19.94300079345703 -35.32699966430664,14.329999923706055 -35.32699966430664,7.4070000648498535 C-35.32699966430664,7.4070000648498535 -35.32699966430664,7.4070000648498535 -35.32699966430664,7.4070000648498535 C-35.32699966430664,7.4070000648498535 -35.37099838256836,7.513000011444092 -35.37099838256836,7.513000011444092 C-35.37099838256836,7.513000011444092 -35.37099838256836,7.513000011444092 -35.37099838256836,7.513000011444092 C-35.37099838256836,0.5899999737739563 -40.98400115966797,-5.0229997634887695 -47.90700149536133,-5.0229997634887695 C-47.90700149536133,-5.0229997634887695 -75.7509994506836,-5.204999923706055 -75.7509994506836,-5.204999923706055z"/><g opacity="1" transform="matrix(1,0,0,1,0,0)"/></g></g></g><clipPath id="__lottie_element_49"><path d="M0,0 L430,0 L430,430 L0,430z"/></clipPath><clipPath id="__lottie_element_53"><path d="M0,0 L430,0 L430,430 L0,430z"/></clipPath><clipPath id="__lottie_element_57"><path d="M0,0 L430,0 L430,430 L0,430z"/></clipPath><g id="__lottie_element_60"><g clip-path="url(#__lottie_element_61)" transform="matrix(1,0,0,1,2.75,9.5)" opacity="1" style="display: block;"><g transform="matrix(0.7071067690849304,-0.7071067690849304,0.7071067690849304,0.7071067690849304,211.443603515625,204.69808959960938)" opacity="1" style="display: block;"><g opacity="1" transform="matrix(1,0,0,1,0,0)"><path class="primary" fill="rgb(255,199,56)" fill-opacity="1" d=" M-69.00199890136719,7.140999794006348 C-69.00199890136719,49.09400177001953 -103.01200103759766,83.10399627685547 -144.96499633789062,83.10399627685547 C-186.91799926757812,83.10399627685547 -220.927001953125,49.09400177001953 -220.927001953125,7.140999794006348 C-220.927001953125,-34.8120002746582 -186.91799926757812,-68.82099914550781 -144.96499633789062,-68.82099914550781 C-103.01200103759766,-68.82099914550781 -69.00199890136719,-34.8120002746582 -69.00199890136719,7.140999794006348z"/></g></g><g transform="matrix(0.7071067690849304,-0.7071067690849304,0.7071067690849304,0.7071067690849304,211.443603515625,204.69808959960938)" opacity="1" style="display: none;"><g opacity="1" transform="matrix(1,0,0,1,0,0)"><path class="primary" fill="rgb(255,199,56)" fill-opacity="1" d=" M-69.00199890136719,7.142000198364258 C-69.00199890136719,-34.59199905395508 -103.01200103759766,-68.42500305175781 -144.96499633789062,-68.42500305175781 C-186.91799926757812,-68.42500305175781 -220.927001953125,-34.59199905395508 -220.927001953125,7.142000198364258 C-220.927001953125,48.875999450683594 -186.91799926757812,82.70800018310547 -144.96499633789062,82.70800018310547 C-103.01200103759766,82.70800018310547 -69.00199890136719,48.875999450683594 -69.00199890136719,7.142000198364258z"/></g></g><g transform="matrix(0.7071067690849304,-0.7071067690849304,-0.7071067690849304,-0.7071067690849304,221.54391479492188,216.44540405273438)" opacity="1" style="display: none;"><g opacity="1" transform="matrix(1,0,0,1,0,0)"><path class="primary" fill="rgb(255,199,56)" fill-opacity="1" d=" M-68.87300109863281,20.142000198364258 C-68.87300109863281,20.25200080871582 -102.88200378417969,20.34000015258789 -144.8350067138672,20.34000015258789 C-186.78799438476562,20.34000015258789 -220.79800415039062,20.25200080871582 -220.79800415039062,20.142000198364258 C-220.79800415039062,20.031999588012695 -186.78799438476562,19.94300079345703 -144.8350067138672,19.94300079345703 C-102.88200378417969,19.94300079345703 -68.87300109863281,20.031999588012695 -68.87300109863281,20.142000198364258z"/></g></g></g></g><clipPath id="__lottie_element_61"><path d="M0,0 L430,0 L430,430 L0,430z"/></clipPath><filter id="__lottie_element_67" filterUnits="objectBoundingBox" x="0%" y="0%" width="100%" height="100%"><feComponentTransfer in="SourceGraphic"><feFuncA type="table" tableValues="1.0 0.0"/></feComponentTransfer></filter><mask id="__lottie_element_60_2" mask-type="alpha" maskUnits="userSpaceOnUse"><g filter="url(#__lottie_element_67)"><rect width="430" height="430" x="0" y="0" fill="#ffffff" opacity="0"/><use xmlns:ns1="http://www.w3.org/1999/xlink" ns1:href="#__lottie_element_60"/></g></mask><filter id="__lottie_element_68" filterUnits="objectBoundingBox" x="0%" y="0%" width="100%" height="100%"><feComponentTransfer in="SourceGraphic"><feFuncA type="table" tableValues="1.0 0.0"/></feComponentTransfer></filter><mask id="__lottie_element_48_2" mask-type="alpha" maskUnits="userSpaceOnUse"><g filter="url(#__lottie_element_68)"><rect width="430" height="430" x="0" y="0" fill="#ffffff" opacity="0"/><use xmlns:ns2="http://www.w3.org/1999/xlink" ns2:href="#__lottie_element_48"/></g></mask><filter id="__lottie_element_69" filterUnits="objectBoundingBox" x="0%" y="0%" width="100%" height="100%"><feComponentTransfer in="SourceGraphic"><feFuncA type="table" tableValues="1.0 0.0"/></feComponentTransfer></filter><mask id="__lottie_element_30_2" mask-type="alpha" maskUnits="userSpaceOnUse"><g filter="url(#__lottie_element_69)"><rect width="430" height="430" x="0" y="0" fill="#ffffff" opacity="0"/><use xmlns:ns3="http://www.w3.org/1999/xlink" ns3:href="#__lottie_element_30"/></g></mask></defs><g clip-path="url(#__lottie_element_16)"><g clip-path="url(#__lottie_element_18)" transform="matrix(1,0,0,1,0,0)" opacity="1" style="display: block;"><g clip-path="url(#__lottie_element_23)" transform="matrix(1,0,0,1,0,0)" opacity="1" style="display: block;"><g transform="matrix(0.7071067690849304,-0.7071067690849304,0.7071067690849304,0.7071067690849304,211.443603515625,204.69808959960938)" opacity="1" style="display: block;"><g opacity="1" transform="matrix(1,0,0,1,0,0)"><path class="primary" fill="rgb(255,199,56)" fill-opacity="1" d=" M-35.37099838256836,25.871999740600586 C-35.37099838256836,25.871999740600586 112.8010025024414,25.569000244140625 112.8010025024414,25.569000244140625 C112.8010025024414,25.569000244140625 112.8010025024414,54.604000091552734 112.8010025024414,54.604000091552734 C112.8010025024414,54.604000091552734 144.2169952392578,54.604000091552734 144.2169952392578,54.604000091552734 C144.2169952392578,54.604000091552734 144.2169952392578,36.5629997253418 144.2169952392578,36.5629997253418 C144.2169952392578,36.5629997253418 175.63400268554688,36.5629997253418 175.63400268554688,36.5629997253418 C175.63400268554688,36.5629997253418 175.63400268554688,54.604000091552734 175.63400268554688,54.604000091552734 C175.63400268554688,54.604000091552734 207.05099487304688,54.604000091552734 207.05099487304688,54.604000091552734 C207.05099487304688,54.604000091552734 207.05099487304688,25.569000244140625 207.05099487304688,25.569000244140625 C207.05099487304688,25.569000244140625 220.02099609375,25.496999740600586 220.02099609375,25.496999740600586 C226.156005859375,25.496999740600586 231.1280059814453,20.52400016784668 231.1280059814453,14.388999938964844 C231.1280059814453,14.388999938964844 231.1280059814453,-0.17499999701976776 231.1280059814453,-0.17499999701976776 C231.1280059814453,-6.309999942779541 226.156005859375,-11.282999992370605 220.02099609375,-11.282999992370605 C220.02099609375,-11.282999992370605 -35.37099838256836,-10.907999992370605 -35.37099838256836,-10.907999992370605"/></g></g><g transform="matrix(0.7071067690849304,-0.7071067690849304,0.7071067690849304,0.7071067690849304,211.443603515625,204.69808959960938)" opacity="1" style="display: none;"><g opacity="1" transform="matrix(1,0,0,1,0,0)"><path class="primary" fill="rgb(255,199,56)" fill-opacity="1" d=" M-35.37099838256836,25.871999740600586 C-35.37099838256836,25.871999740600586 112.8010025024414,25.569000244140625 112.8010025024414,25.569000244140625 C112.8010025024414,25.569000244140625 112.8010025024414,54.604000091552734 112.8010025024414,54.604000091552734 C112.8010025024414,54.604000091552734 144.2169952392578,54.604000091552734 144.2169952392578,54.604000091552734 C144.2169952392578,54.604000091552734 144.2169952392578,36.5629997253418 144.2169952392578,36.5629997253418 C144.2169952392578,36.5629997253418 175.63400268554688,36.5629997253418 175.63400268554688,36.5629997253418 C175.63400268554688,36.5629997253418 175.63400268554688,54.604000091552734 175.63400268554688,54.604000091552734 C175.63400268554688,54.604000091552734 207.05099487304688,54.604000091552734 207.05099487304688,54.604000091552734 C207.05099487304688,54.604000091552734 207.05099487304688,25.569000244140625 207.05099487304688,25.569000244140625 C207.05099487304688,25.569000244140625 220.02099609375,25.496999740600586 220.02099609375,25.496999740600586 C226.156005859375,25.496999740600586 231.1280059814453,20.52400016784668 231.1280059814453,14.388999938964844 C231.1280059814453,14.388999938964844 231.1280059814453,-0.17499999701976776 231.1280059814453,-0.17499999701976776 C231.1280059814453,-6.309999942779541 226.156005859375,-11.282999992370605 220.02099609375,-11.282999992370605 C220.02099609375,-11.282999992370605 -35.37099838256836,-10.907999992370605 -35.37099838256836,-10.907999992370605"/></g></g><g transform="matrix(0.7071067690849304,-0.7071067690849304,-0.7071067690849304,-0.7071067690849304,221.54391479492188,216.44540405273438)" opacity="1" style="display: none;"><g opacity="1" transform="matrix(1,0,0,1,0,0)"><path class="primary" fill="rgb(255,199,56)" fill-opacity="1" d=" M-61.30500030517578,21.34000015258789 C-61.30500030517578,21.34000015258789 112.92900085449219,20.496999740600586 112.92900085449219,20.496999740600586 C112.92900085449219,20.496999740600586 112.92900085449219,20.5 112.92900085449219,20.5 C112.92900085449219,20.5 144.3459930419922,20.5 144.3459930419922,20.5 C144.3459930419922,20.5 144.3459930419922,20.49799919128418 144.3459930419922,20.49799919128418 C144.3459930419922,20.49799919128418 175.76300048828125,20.49799919128418 175.76300048828125,20.49799919128418 C175.76300048828125,20.49799919128418 175.76300048828125,20.5 175.76300048828125,20.5 C175.76300048828125,20.5 207.1790008544922,20.5 207.1790008544922,20.5 C207.1790008544922,20.5 207.1790008544922,20.496999740600586 207.1790008544922,20.496999740600586 C207.1790008544922,20.496999740600586 220.1490020751953,20.496999740600586 220.1490020751953,20.496999740600586 C226.28399658203125,20.496999740600586 231.13099670410156,16.52400016784668 231.13099670410156,10.388999938964844 C231.13099670410156,10.388999938964844 231.2570037841797,6.324999809265137 231.2570037841797,6.324999809265137 C231.2570037841797,0.1899999976158142 226.2830047607422,-4.7829999923706055 220.1490020751953,-4.7829999923706055 C220.1490020751953,-4.7829999923706055 -61.30500030517578,-3.938999891281128 -61.30500030517578,-3.938999891281128"/></g></g></g><g mask="url(#__lottie_element_30_2)" style="mix-blend-mode: multiply; display: block;"><g clip-path="url(#__lottie_element_27)" transform="matrix(1,0,0,1,0,0)" opacity="0.5"><g transform="matrix(0.7071067690849304,-0.7071067690849304,0.7071067690849304,0.7071067690849304,211.443603515625,204.69808959960938)" opacity="1" style="display: block;"><g opacity="1" transform="matrix(1,0,0,1,0,0)"><path class="primary" fill="rgb(255,199,56)" fill-opacity="1" d=" M-35.37099838256836,25.871999740600586 C-35.37099838256836,25.871999740600586 112.8010025024414,25.569000244140625 112.8010025024414,25.569000244140625 C112.8010025024414,25.569000244140625 112.8010025024414,54.604000091552734 112.8010025024414,54.604000091552734 C112.8010025024414,54.604000091552734 144.2169952392578,54.604000091552734 144.2169952392578,54.604000091552734 C144.2169952392578,54.604000091552734 144.2169952392578,36.5629997253418 144.2169952392578,36.5629997253418 C144.2169952392578,36.5629997253418 175.63400268554688,36.5629997253418 175.63400268554688,36.5629997253418 C175.63400268554688,36.5629997253418 175.63400268554688,54.604000091552734 175.63400268554688,54.604000091552734 C175.63400268554688,54.604000091552734 207.05099487304688,54.604000091552734 207.05099487304688,54.604000091552734 C207.05099487304688,54.604000091552734 207.05099487304688,25.569000244140625 207.05099487304688,25.569000244140625 C207.05099487304688,25.569000244140625 220.02099609375,25.496999740600586 220.02099609375,25.496999740600586 C226.156005859375,25.496999740600586 231.1280059814453,20.52400016784668 231.1280059814453,14.388999938964844 C231.1280059814453,14.388999938964844 231.1280059814453,-0.17499999701976776 231.1280059814453,-0.17499999701976776 C231.1280059814453,-6.309999942779541 226.156005859375,-11.282999992370605 220.02099609375,-11.282999992370605 C220.02099609375,-11.282999992370605 -35.37099838256836,-10.907999992370605 -35.37099838256836,-10.907999992370605"/></g></g><g transform="matrix(0.7071067690849304,-0.7071067690849304,0.7071067690849304,0.7071067690849304,211.443603515625,204.69808959960938)" opacity="1" style="display: none;"><g opacity="1" transform="matrix(1,0,0,1,0,0)"><path class="primary" fill="rgb(255,199,56)" fill-opacity="1" d=" M-35.37099838256836,25.871999740600586 C-35.37099838256836,25.871999740600586 112.8010025024414,25.569000244140625 112.8010025024414,25.569000244140625 C112.8010025024414,25.569000244140625 112.8010025024414,54.604000091552734 112.8010025024414,54.604000091552734 C112.8010025024414,54.604000091552734 144.2169952392578,54.604000091552734 144.2169952392578,54.604000091552734 C144.2169952392578,54.604000091552734 144.2169952392578,36.5629997253418 144.2169952392578,36.5629997253418 C144.2169952392578,36.5629997253418 175.63400268554688,36.5629997253418 175.63400268554688,36.5629997253418 C175.63400268554688,36.5629997253418 175.63400268554688,54.604000091552734 175.63400268554688,54.604000091552734 C175.63400268554688,54.604000091552734 207.05099487304688,54.604000091552734 207.05099487304688,54.604000091552734 C207.05099487304688,54.604000091552734 207.05099487304688,25.569000244140625 207.05099487304688,25.569000244140625 C207.05099487304688,25.569000244140625 220.02099609375,25.496999740600586 220.02099609375,25.496999740600586 C226.156005859375,25.496999740600586 231.1280059814453,20.52400016784668 231.1280059814453,14.388999938964844 C231.1280059814453,14.388999938964844 231.1280059814453,-0.17499999701976776 231.1280059814453,-0.17499999701976776 C231.1280059814453,-6.309999942779541 226.156005859375,-11.282999992370605 220.02099609375,-11.282999992370605 C220.02099609375,-11.282999992370605 -35.37099838256836,-10.907999992370605 -35.37099838256836,-10.907999992370605"/></g></g><g transform="matrix(0.7071067690849304,-0.7071067690849304,-0.7071067690849304,-0.7071067690849304,221.54391479492188,216.44540405273438)" opacity="1" style="display: none;"><g opacity="1" transform="matrix(1,0,0,1,0,0)"><path class="primary" fill="rgb(255,199,56)" fill-opacity="1" d=" M-61.30500030517578,21.34000015258789 C-61.30500030517578,21.34000015258789 112.92900085449219,20.496999740600586 112.92900085449219,20.496999740600586 C112.92900085449219,20.496999740600586 112.92900085449219,20.5 112.92900085449219,20.5 C112.92900085449219,20.5 144.3459930419922,20.5 144.3459930419922,20.5 C144.3459930419922,20.5 144.3459930419922,20.49799919128418 144.3459930419922,20.49799919128418 C144.3459930419922,20.49799919128418 175.76300048828125,20.49799919128418 175.76300048828125,20.49799919128418 C175.76300048828125,20.49799919128418 175.76300048828125,20.5 175.76300048828125,20.5 C175.76300048828125,20.5 207.1790008544922,20.5 207.1790008544922,20.5 C207.1790008544922,20.5 207.1790008544922,20.496999740600586 207.1790008544922,20.496999740600586 C207.1790008544922,20.496999740600586 220.1490020751953,20.496999740600586 220.1490020751953,20.496999740600586 C226.28399658203125,20.496999740600586 231.13099670410156,16.52400016784668 231.13099670410156,10.388999938964844 C231.13099670410156,10.388999938964844 231.2570037841797,6.324999809265137 231.2570037841797,6.324999809265137 C231.2570037841797,0.1899999976158142 226.2830047607422,-4.7829999923706055 220.1490020751953,-4.7829999923706055 C220.1490020751953,-4.7829999923706055 -61.30500030517578,-3.938999891281128 -61.30500030517578,-3.938999891281128"/></g></g></g></g><g transform="matrix(0.7071067690849304,-0.7071067690849304,0.7071067690849304,0.7071067690849304,211.443603515625,204.69808959960938)" opacity="1" style="display: block;"><g opacity="1" transform="matrix(1,0,0,1,0,0)"><path stroke-linecap="butt" stroke-linejoin="miter" fill-opacity="0" stroke-miterlimit="4" class="primary" stroke="rgb(255,199,56)" stroke-opacity="1" stroke-width="2" d="M0 0"/></g><path class="primary" fill="rgb(255,199,56)" fill-opacity="1" d=" M-69.00199890136719,7.140999794006348 C-69.00199890136719,49.09400177001953 -103.01200103759766,83.10399627685547 -144.96499633789062,83.10399627685547 C-186.91799926757812,83.10399627685547 -220.927001953125,49.09400177001953 -220.927001953125,7.140999794006348 C-220.927001953125,-34.8120002746582 -186.91799926757812,-68.82099914550781 -144.96499633789062,-68.82099914550781 C-103.01200103759766,-68.82099914550781 -69.00199890136719,-34.8120002746582 -69.00199890136719,7.140999794006348z M-99.72200012207031,7.142000198364258 C-99.72200012207031,-17.844999313354492 -119.97799682617188,-38.10200119018555 -144.96499633789062,-38.10200119018555 C-169.95199584960938,-38.10200119018555 -190.20799255371094,-17.84600067138672 -190.20799255371094,7.140999794006348 C-190.20799255371094,32.12799835205078 -169.95199584960938,52.3849983215332 -144.96499633789062,52.3849983215332 C-119.97799682617188,52.3849983215332 -99.72200012207031,32.12900161743164 -99.72200012207031,7.142000198364258z"/><path class="primary" fill="rgb(255,199,56)" fill-opacity="0.5" d=" M-69.00199890136719,7.140999794006348 C-69.00199890136719,49.09400177001953 -103.01200103759766,83.10399627685547 -144.96499633789062,83.10399627685547 C-186.91799926757812,83.10399627685547 -220.927001953125,49.09400177001953 -220.927001953125,7.140999794006348 C-220.927001953125,-34.8120002746582 -186.91799926757812,-68.82099914550781 -144.96499633789062,-68.82099914550781 C-103.01200103759766,-68.82099914550781 -69.00199890136719,-34.8120002746582 -69.00199890136719,7.140999794006348z M-99.72200012207031,7.142000198364258 C-99.72200012207031,-17.844999313354492 -119.97799682617188,-38.10200119018555 -144.96499633789062,-38.10200119018555 C-169.95199584960938,-38.10200119018555 -190.20799255371094,-17.84600067138672 -190.20799255371094,7.140999794006348 C-190.20799255371094,32.12799835205078 -169.95199584960938,52.3849983215332 -144.96499633789062,52.3849983215332 C-119.97799682617188,52.3849983215332 -99.72200012207031,32.12900161743164 -99.72200012207031,7.142000198364258z" style="mix-blend-mode: multiply;"/><g opacity="1" transform="matrix(1,0,0,1,0,0)"/></g><g transform="matrix(0.7071067690849304,-0.7071067690849304,0.7071067690849304,0.7071067690849304,211.443603515625,204.69808959960938)" opacity="1" style="display: none;"><g opacity="1" transform="matrix(1,0,0,1,0,0)"><path stroke-linecap="butt" stroke-linejoin="miter" fill-opacity="0" stroke-miterlimit="4" class="primary" stroke="rgb(255,199,56)" stroke-opacity="1" stroke-width="2" d="M0 0"/></g><g opacity="1" transform="matrix(1,0,0,1,0,0)"><path class="primary" fill="rgb(255,199,56)" fill-opacity="1" d=" M-69.00199890136719,7.142000198364258 C-69.00199890136719,-34.59199905395508 -103.01200103759766,-68.42500305175781 -144.96499633789062,-68.42500305175781 C-186.91799926757812,-68.42500305175781 -220.927001953125,-34.59199905395508 -220.927001953125,7.142000198364258 C-220.927001953125,48.875999450683594 -186.91799926757812,82.70800018310547 -144.96499633789062,82.70800018310547 C-103.01200103759766,82.70800018310547 -69.00199890136719,48.875999450683594 -69.00199890136719,7.142000198364258z M-99.72200012207031,7.142000198364258 C-99.72200012207031,31.999000549316406 -119.97799682617188,52.14799880981445 -144.96499633789062,52.14799880981445 C-169.95199584960938,52.14799880981445 -190.20799255371094,31.999000549316406 -190.20799255371094,7.142000198364258 C-190.20799255371094,-17.71500015258789 -169.95199584960938,-37.8650016784668 -144.96499633789062,-37.8650016784668 C-119.97799682617188,-37.8650016784668 -99.72200012207031,-17.71500015258789 -99.72200012207031,7.142000198364258z"/><path class="primary" fill="rgb(255,199,56)" fill-opacity="0.5" d=" M-69.00199890136719,7.142000198364258 C-69.00199890136719,-34.59199905395508 -103.01200103759766,-68.42500305175781 -144.96499633789062,-68.42500305175781 C-186.91799926757812,-68.42500305175781 -220.927001953125,-34.59199905395508 -220.927001953125,7.142000198364258 C-220.927001953125,48.875999450683594 -186.91799926757812,82.70800018310547 -144.96499633789062,82.70800018310547 C-103.01200103759766,82.70800018310547 -69.00199890136719,48.875999450683594 -69.00199890136719,7.142000198364258z M-99.72200012207031,7.142000198364258 C-99.72200012207031,31.999000549316406 -119.97799682617188,52.14799880981445 -144.96499633789062,52.14799880981445 C-169.95199584960938,52.14799880981445 -190.20799255371094,31.999000549316406 -190.20799255371094,7.142000198364258 C-190.20799255371094,-17.71500015258789 -169.95199584960938,-37.8650016784668 -144.96499633789062,-37.8650016784668 C-119.97799682617188,-37.8650016784668 -99.72200012207031,-17.71500015258789 -99.72200012207031,7.142000198364258z" style="mix-blend-mode: multiply;"/></g></g><g transform="matrix(0.7071067690849304,-0.7071067690849304,-0.7071067690849304,-0.7071067690849304,221.54391479492188,216.44540405273438)" opacity="1" style="display: none;"><g opacity="1" transform="matrix(1,0,0,1,0,0)"><path stroke-linecap="butt" stroke-linejoin="miter" fill-opacity="0" stroke-miterlimit="4" class="primary" stroke="rgb(255,199,56)" stroke-opacity="1" stroke-width="2" d="M0 0"/></g><g opacity="1" transform="matrix(1,0,0,1,0,0)"><path class="primary" fill="rgb(255,199,56)" fill-opacity="1" d=" M-68.9739990234375,-4.857999801635742 C-68.9739990234375,-4.748000144958496 -102.98300170898438,-4.659999847412109 -144.93600463867188,-4.659999847412109 C-186.88900756835938,-4.659999847412109 -220.8990020751953,-4.748000144958496 -220.8990020751953,-4.857999801635742 C-220.8990020751953,-4.9679999351501465 -186.88900756835938,-5.057000160217285 -144.93600463867188,-5.057000160217285 C-102.98300170898438,-5.057000160217285 -68.9739990234375,-4.9679999351501465 -68.9739990234375,-4.857999801635742z M-99.69300079345703,-4.857999801635742 C-99.69300079345703,-4.922999858856201 -119.9489974975586,-4.9770002365112305 -144.93600463867188,-4.9770002365112305 C-169.92300415039062,-4.9770002365112305 -190.1790008544922,-4.922999858856201 -190.1790008544922,-4.857999801635742 C-190.1790008544922,-4.793000221252441 -169.92300415039062,-4.739999771118164 -144.93600463867188,-4.739999771118164 C-119.9489974975586,-4.739999771118164 -99.69300079345703,-4.793000221252441 -99.69300079345703,-4.857999801635742z"/><path class="primary" fill="rgb(255,199,56)" fill-opacity="0.5" d=" M-68.9739990234375,-4.857999801635742 C-68.9739990234375,-4.748000144958496 -102.98300170898438,-4.659999847412109 -144.93600463867188,-4.659999847412109 C-186.88900756835938,-4.659999847412109 -220.8990020751953,-4.748000144958496 -220.8990020751953,-4.857999801635742 C-220.8990020751953,-4.9679999351501465 -186.88900756835938,-5.057000160217285 -144.93600463867188,-5.057000160217285 C-102.98300170898438,-5.057000160217285 -68.9739990234375,-4.9679999351501465 -68.9739990234375,-4.857999801635742z M-99.69300079345703,-4.857999801635742 C-99.69300079345703,-4.922999858856201 -119.9489974975586,-4.9770002365112305 -144.93600463867188,-4.9770002365112305 C-169.92300415039062,-4.9770002365112305 -190.1790008544922,-4.922999858856201 -190.1790008544922,-4.857999801635742 C-190.1790008544922,-4.793000221252441 -169.92300415039062,-4.739999771118164 -144.93600463867188,-4.739999771118164 C-119.9489974975586,-4.739999771118164 -99.69300079345703,-4.793000221252441 -99.69300079345703,-4.857999801635742z" style="mix-blend-mode: multiply;"/></g></g><g transform="matrix(1,0,0,1,215,215)" opacity="1" style="display: block;"><g opacity="1" transform="matrix(1,0,0,1,0,0)"><path stroke-linecap="butt" stroke-linejoin="miter" fill-opacity="0" stroke-miterlimit="4" class="primary" stroke="rgb(255,199,56)" stroke-opacity="1" stroke-width="2" d="M0 0"/></g><g opacity="1" transform="matrix(1,0,0,1,0,0)"><path class="primary" fill="rgb(255,199,56)" fill-opacity="1" d=" M-49.60200119018555,39.957000732421875 C-71.81199645996094,28.211999893188477 -113.7030029296875,9.545000076293945 -151.7830047607422,43.45399856567383 C-195.2270050048828,82.13899993896484 -171.26400756835938,130.29299926757812 -162.31399536132812,142.0469970703125 C-162.26400756835938,142.11300659179688 -162.24200439453125,142.36199951171875 -162.29200744628906,142.29600524902344 C-171.2530059814453,130.41700744628906 -195.33399963378906,82.3550033569336 -151.0989990234375,42.85200119018555 C-111.25,7.265999794006348 -68.2770004272461,29.868000030517578 -49.69200134277344,40.10900115966797 C-49.63999938964844,40.137001037597656 -49.54999923706055,39.98500061035156 -49.60200119018555,39.957000732421875z"/><path class="primary" fill="rgb(255,199,56)" fill-opacity="0.5" d=" M-49.60200119018555,39.957000732421875 C-71.81199645996094,28.211999893188477 -113.7030029296875,9.545000076293945 -151.7830047607422,43.45399856567383 C-195.2270050048828,82.13899993896484 -171.26400756835938,130.29299926757812 -162.31399536132812,142.0469970703125 C-162.26400756835938,142.11300659179688 -162.24200439453125,142.36199951171875 -162.29200744628906,142.29600524902344 C-171.2530059814453,130.41700744628906 -195.33399963378906,82.3550033569336 -151.0989990234375,42.85200119018555 C-111.25,7.265999794006348 -68.2770004272461,29.868000030517578 -49.69200134277344,40.10900115966797 C-49.63999938964844,40.137001037597656 -49.54999923706055,39.98500061035156 -49.60200119018555,39.957000732421875z" style="mix-blend-mode: multiply;"/></g></g><g transform="matrix(1,0,0,1,215,215)" opacity="1" style="display: none;"><g opacity="1" transform="matrix(1,0,0,1,0,0)"><path stroke-linecap="butt" stroke-linejoin="miter" fill-opacity="0" stroke-miterlimit="4" class="primary" stroke="rgb(255,199,56)" stroke-opacity="1" stroke-width="2" d="M0 0"/></g><g opacity="1" transform="matrix(1,0,0,1,0,0)"><path class="primary" fill="rgb(255,199,56)" fill-opacity="1" d=" M-49.61350631713867,39.93136215209961 C-71.73532104492188,28.232995986938477 -113.611328125,9.793184280395508 -151.6157989501953,43.64408874511719 C-194.95556640625,82.24453735351562 -171.2242431640625,130.34544372558594 -162.3097686767578,142.05276489257812 C-162.25997924804688,142.11849975585938 -162.17056274414062,142.43203735351562 -162.22036743164062,142.3662872314453 C-171.14578247070312,130.53445434570312 -194.99337768554688,82.52580261230469 -150.8651123046875,43.110904693603516 C-111.09830474853516,7.590348720550537 -68.14388275146484,29.950910568237305 -49.63267517089844,40.151248931884766 C-49.58087921142578,40.17913818359375 -49.56171417236328,39.959251403808594 -49.61350631713867,39.93136215209961z"/><path class="primary" fill="rgb(255,199,56)" fill-opacity="0.5" d=" M-49.61350631713867,39.93136215209961 C-71.73532104492188,28.232995986938477 -113.611328125,9.793184280395508 -151.6157989501953,43.64408874511719 C-194.95556640625,82.24453735351562 -171.2242431640625,130.34544372558594 -162.3097686767578,142.05276489257812 C-162.25997924804688,142.11849975585938 -162.17056274414062,142.43203735351562 -162.22036743164062,142.3662872314453 C-171.14578247070312,130.53445434570312 -194.99337768554688,82.52580261230469 -150.8651123046875,43.110904693603516 C-111.09830474853516,7.590348720550537 -68.14388275146484,29.950910568237305 -49.63267517089844,40.151248931884766 C-49.58087921142578,40.17913818359375 -49.56171417236328,39.959251403808594 -49.61350631713867,39.93136215209961z" style="mix-blend-mode: multiply;"/></g></g><g transform="matrix(1,0,0,1,215,215)" opacity="1" style="display: none;"><g opacity="1" transform="matrix(1,0,0,1,0,0)"><path stroke-linecap="butt" stroke-linejoin="miter" fill-opacity="0" stroke-miterlimit="4" class="primary" stroke="rgb(255,199,56)" stroke-opacity="1" stroke-width="2" d="M0 0"/></g><g opacity="1" transform="matrix(1,0,0,1,0,0)"><path class="primary" fill="rgb(255,199,56)" fill-opacity="1" d=" M-52.5,33.5 C-52.5,33.5 -90.61499786376953,72.0530014038086 -109.6719970703125,91.33000183105469 C-126.86499786376953,108.72000122070312 -161.25,143.5 -161.25,143.5 C-161.25,143.5 -144.25,160 -144.25,160 C-144.25,160 -109.54399871826172,125.37300109863281 -92.19100189208984,108.05999755859375 C-73.04399871826172,88.95700073242188 -34.75,50.75 -34.75,50.75 C-34.75,50.75 -52.5,33.5 -52.5,33.5z"/><path class="primary" fill="rgb(255,199,56)" fill-opacity="0.5" d=" M-52.5,33.5 C-52.5,33.5 -90.61499786376953,72.0530014038086 -109.6719970703125,91.33000183105469 C-126.86499786376953,108.72000122070312 -161.25,143.5 -161.25,143.5 C-161.25,143.5 -144.25,160 -144.25,160 C-144.25,160 -109.54399871826172,125.37300109863281 -92.19100189208984,108.05999755859375 C-73.04399871826172,88.95700073242188 -34.75,50.75 -34.75,50.75 C-34.75,50.75 -52.5,33.5 -52.5,33.5z" style="mix-blend-mode: multiply;"/></g></g><g transform="matrix(1,0,0,1,215,215)" opacity="1" style="display: none;"><g opacity="1" transform="matrix(1,0,0,1,0,0)"><path stroke-linecap="butt" stroke-linejoin="miter" fill-opacity="0" stroke-miterlimit="4" class="primary" stroke="rgb(255,199,56)" stroke-opacity="1" stroke-width="2" d="M0 0"/></g><g opacity="1" transform="matrix(1,0,0,1,0,0)"><path class="primary" fill="rgb(255,199,56)" fill-opacity="1" d=" M-49.609249114990234,39.94084548950195 C-71.76368713378906,28.225229263305664 -113.6452407836914,9.701374053955078 -151.6776580810547,43.573768615722656 C-195.0559844970703,82.20549774169922 -171.23728942871094,130.33596801757812 -162.30967712402344,142.06057739257812 C-162.2598114013672,142.12640380859375 -162.19532775878906,142.41770935058594 -162.24520874023438,142.3518829345703 C-171.1837921142578,130.50259399414062 -195.119384765625,82.46261596679688 -150.95162963867188,43.0151252746582 C-111.1544189453125,7.470361232757568 -68.19313049316406,29.920238494873047 -49.65462112426758,40.1356201171875 C-49.60274887084961,40.163551330566406 -49.557376861572266,39.96877670288086 -49.609249114990234,39.94084548950195z"/><path class="primary" fill="rgb(255,199,56)" fill-opacity="0.5" d=" M-49.609249114990234,39.94084548950195 C-71.76368713378906,28.225229263305664 -113.6452407836914,9.701374053955078 -151.6776580810547,43.573768615722656 C-195.0559844970703,82.20549774169922 -171.23728942871094,130.33596801757812 -162.30967712402344,142.06057739257812 C-162.2598114013672,142.12640380859375 -162.19532775878906,142.41770935058594 -162.24520874023438,142.3518829345703 C-171.1837921142578,130.50259399414062 -195.119384765625,82.46261596679688 -150.95162963867188,43.0151252746582 C-111.1544189453125,7.470361232757568 -68.19313049316406,29.920238494873047 -49.65462112426758,40.1356201171875 C-49.60274887084961,40.163551330566406 -49.557376861572266,39.96877670288086 -49.609249114990234,39.94084548950195z" style="mix-blend-mode: multiply;"/></g></g><g clip-path="url(#__lottie_element_41)" transform="matrix(1,0,0,1,0,0)" opacity="1" style="display: block;"><g transform="matrix(0.7071067690849304,-0.7071067690849304,0.7071067690849304,0.7071067690849304,211.443603515625,204.69808959960938)" opacity="1" style="display: block;"><path class="primary" fill="rgb(255,199,56)" fill-opacity="1" d=" M-83.70600128173828,-30.30699920654297 C-83.70600128173828,-30.30699920654297 -74.43399810791016,-19.19300079345703 -74.51300048828125,7.677999973297119 C-74.59700012207031,36.138999938964844 -83.70600128173828,44.20000076293945 -83.70600128173828,44.20000076293945 C-83.70600128173828,44.20000076293945 -47.90700149536133,44.736000061035156 -47.90700149536133,44.736000061035156 C-40.98400115966797,44.736000061035156 -35.37099838256836,39.12200164794922 -35.37099838256836,32.19900131225586 C-35.37099838256836,32.19900131225586 -35.37099838256836,32.19900131225586 -35.37099838256836,32.19900131225586 C-35.37099838256836,32.19900131225586 -35.37099838256836,-17.236000061035156 -35.37099838256836,-17.236000061035156 C-35.37099838256836,-17.236000061035156 -35.37099838256836,-17.236000061035156 -35.37099838256836,-17.236000061035156 C-35.37099838256836,-24.159000396728516 -40.98400115966797,-29.77199935913086 -47.90700149536133,-29.77199935913086 C-47.90700149536133,-29.77199935913086 -83.70600128173828,-30.30699920654297 -83.70600128173828,-30.30699920654297z"/><g opacity="1" transform="matrix(1,0,0,1,0,0)"/></g><g transform="matrix(0.7071067690849304,-0.7071067690849304,0.7071067690849304,0.7071067690849304,211.443603515625,204.69808959960938)" opacity="1" style="display: none;"><path class="primary" fill="rgb(255,199,56)" fill-opacity="1" d=" M-83.70600128173828,-30.30699920654297 C-83.70600128173828,-30.30699920654297 -74.43399810791016,-19.19300079345703 -74.51300048828125,7.677999973297119 C-74.59700012207031,36.138999938964844 -83.70600128173828,44.20000076293945 -83.70600128173828,44.20000076293945 C-83.70600128173828,44.20000076293945 -47.90700149536133,44.736000061035156 -47.90700149536133,44.736000061035156 C-40.98400115966797,44.736000061035156 -35.37099838256836,39.12200164794922 -35.37099838256836,32.19900131225586 C-35.37099838256836,32.19900131225586 -35.37099838256836,32.19900131225586 -35.37099838256836,32.19900131225586 C-35.37099838256836,32.19900131225586 -35.37099838256836,-17.236000061035156 -35.37099838256836,-17.236000061035156 C-35.37099838256836,-17.236000061035156 -35.37099838256836,-17.236000061035156 -35.37099838256836,-17.236000061035156 C-35.37099838256836,-24.159000396728516 -40.98400115966797,-29.77199935913086 -47.90700149536133,-29.77199935913086 C-47.90700149536133,-29.77199935913086 -83.70600128173828,-30.30699920654297 -83.70600128173828,-30.30699920654297z"/><g opacity="1" transform="matrix(1,0,0,1,0,0)"/></g><g transform="matrix(0.7071067690849304,-0.7071067690849304,-0.7071067690849304,-0.7071067690849304,221.54391479492188,216.44540405273438)" opacity="1" style="display: none;"><path class="primary" fill="rgb(255,199,56)" fill-opacity="1" d=" M-75.7509994506836,-5.204999923706055 C-75.7509994506836,-5.204999923706055 -75.13200378417969,0.6010000109672546 -75.22000122070312,7.146999835968018 C-75.30400085449219,13.333999633789062 -75.70600128173828,20.11400032043457 -75.70600128173828,20.11400032043457 C-75.70600128173828,20.11400032043457 -47.862998962402344,19.94300079345703 -47.862998962402344,19.94300079345703 C-40.939998626708984,19.94300079345703 -35.32699966430664,14.329999923706055 -35.32699966430664,7.4070000648498535 C-35.32699966430664,7.4070000648498535 -35.32699966430664,7.4070000648498535 -35.32699966430664,7.4070000648498535 C-35.32699966430664,7.4070000648498535 -35.37099838256836,7.513000011444092 -35.37099838256836,7.513000011444092 C-35.37099838256836,7.513000011444092 -35.37099838256836,7.513000011444092 -35.37099838256836,7.513000011444092 C-35.37099838256836,0.5899999737739563 -40.98400115966797,-5.0229997634887695 -47.90700149536133,-5.0229997634887695 C-47.90700149536133,-5.0229997634887695 -75.7509994506836,-5.204999923706055 -75.7509994506836,-5.204999923706055z"/><g opacity="1" transform="matrix(1,0,0,1,0,0)"/></g></g><g mask="url(#__lottie_element_48_2)" style="mix-blend-mode: multiply; display: block;"><g clip-path="url(#__lottie_element_45)" transform="matrix(1,0,0,1,0,0)" opacity="0.5"><g transform="matrix(0.7071067690849304,-0.7071067690849304,0.7071067690849304,0.7071067690849304,211.443603515625,204.69808959960938)" opacity="1" style="display: block;"><path class="primary" fill="rgb(255,199,56)" fill-opacity="1" d=" M-83.70600128173828,-30.30699920654297 C-83.70600128173828,-30.30699920654297 -74.43399810791016,-19.19300079345703 -74.51300048828125,7.677999973297119 C-74.59700012207031,36.138999938964844 -83.70600128173828,44.20000076293945 -83.70600128173828,44.20000076293945 C-83.70600128173828,44.20000076293945 -47.90700149536133,44.736000061035156 -47.90700149536133,44.736000061035156 C-40.98400115966797,44.736000061035156 -35.37099838256836,39.12200164794922 -35.37099838256836,32.19900131225586 C-35.37099838256836,32.19900131225586 -35.37099838256836,32.19900131225586 -35.37099838256836,32.19900131225586 C-35.37099838256836,32.19900131225586 -35.37099838256836,-17.236000061035156 -35.37099838256836,-17.236000061035156 C-35.37099838256836,-17.236000061035156 -35.37099838256836,-17.236000061035156 -35.37099838256836,-17.236000061035156 C-35.37099838256836,-24.159000396728516 -40.98400115966797,-29.77199935913086 -47.90700149536133,-29.77199935913086 C-47.90700149536133,-29.77199935913086 -83.70600128173828,-30.30699920654297 -83.70600128173828,-30.30699920654297z"/><g opacity="1" transform="matrix(1,0,0,1,0,0)"/></g><g transform="matrix(0.7071067690849304,-0.7071067690849304,0.7071067690849304,0.7071067690849304,211.443603515625,204.69808959960938)" opacity="1" style="display: none;"><path class="primary" fill="rgb(255,199,56)" fill-opacity="1" d=" M-83.70600128173828,-30.30699920654297 C-83.70600128173828,-30.30699920654297 -74.43399810791016,-19.19300079345703 -74.51300048828125,7.677999973297119 C-74.59700012207031,36.138999938964844 -83.70600128173828,44.20000076293945 -83.70600128173828,44.20000076293945 C-83.70600128173828,44.20000076293945 -47.90700149536133,44.736000061035156 -47.90700149536133,44.736000061035156 C-40.98400115966797,44.736000061035156 -35.37099838256836,39.12200164794922 -35.37099838256836,32.19900131225586 C-35.37099838256836,32.19900131225586 -35.37099838256836,32.19900131225586 -35.37099838256836,32.19900131225586 C-35.37099838256836,32.19900131225586 -35.37099838256836,-17.236000061035156 -35.37099838256836,-17.236000061035156 C-35.37099838256836,-17.236000061035156 -35.37099838256836,-17.236000061035156 -35.37099838256836,-17.236000061035156 C-35.37099838256836,-24.159000396728516 -40.98400115966797,-29.77199935913086 -47.90700149536133,-29.77199935913086 C-47.90700149536133,-29.77199935913086 -83.70600128173828,-30.30699920654297 -83.70600128173828,-30.30699920654297z"/><g opacity="1" transform="matrix(1,0,0,1,0,0)"/></g><g transform="matrix(0.7071067690849304,-0.7071067690849304,-0.7071067690849304,-0.7071067690849304,221.54391479492188,216.44540405273438)" opacity="1" style="display: none;"><path class="primary" fill="rgb(255,199,56)" fill-opacity="1" d=" M-75.7509994506836,-5.204999923706055 C-75.7509994506836,-5.204999923706055 -75.13200378417969,0.6010000109672546 -75.22000122070312,7.146999835968018 C-75.30400085449219,13.333999633789062 -75.70600128173828,20.11400032043457 -75.70600128173828,20.11400032043457 C-75.70600128173828,20.11400032043457 -47.862998962402344,19.94300079345703 -47.862998962402344,19.94300079345703 C-40.939998626708984,19.94300079345703 -35.32699966430664,14.329999923706055 -35.32699966430664,7.4070000648498535 C-35.32699966430664,7.4070000648498535 -35.32699966430664,7.4070000648498535 -35.32699966430664,7.4070000648498535 C-35.32699966430664,7.4070000648498535 -35.37099838256836,7.513000011444092 -35.37099838256836,7.513000011444092 C-35.37099838256836,7.513000011444092 -35.37099838256836,7.513000011444092 -35.37099838256836,7.513000011444092 C-35.37099838256836,0.5899999737739563 -40.98400115966797,-5.0229997634887695 -47.90700149536133,-5.0229997634887695 C-47.90700149536133,-5.0229997634887695 -75.7509994506836,-5.204999923706055 -75.7509994506836,-5.204999923706055z"/><g opacity="1" transform="matrix(1,0,0,1,0,0)"/></g></g></g><g clip-path="url(#__lottie_element_53)" transform="matrix(1,0,0,1,0,0)" opacity="1" style="display: block;"><g transform="matrix(0.7071067690849304,-0.7071067690849304,0.7071067690849304,0.7071067690849304,211.443603515625,204.69808959960938)" opacity="1" style="display: block;"><g opacity="1" transform="matrix(1,0,0,1,0,0)"><path class="primary" fill="rgb(255,199,56)" fill-opacity="1" d=" M-69.00199890136719,7.140999794006348 C-69.00199890136719,49.09400177001953 -103.01200103759766,83.10399627685547 -144.96499633789062,83.10399627685547 C-186.91799926757812,83.10399627685547 -220.927001953125,49.09400177001953 -220.927001953125,7.140999794006348 C-220.927001953125,-34.8120002746582 -186.91799926757812,-68.82099914550781 -144.96499633789062,-68.82099914550781 C-103.01200103759766,-68.82099914550781 -69.00199890136719,-34.8120002746582 -69.00199890136719,7.140999794006348z M-99.72200012207031,7.142000198364258 C-99.72200012207031,-17.844999313354492 -119.97799682617188,-38.10200119018555 -144.96499633789062,-38.10200119018555 C-169.95199584960938,-38.10200119018555 -190.20799255371094,-17.84600067138672 -190.20799255371094,7.140999794006348 C-190.20799255371094,32.12799835205078 -169.95199584960938,52.3849983215332 -144.96499633789062,52.3849983215332 C-119.97799682617188,52.3849983215332 -99.72200012207031,32.12900161743164 -99.72200012207031,7.142000198364258z"/></g></g><g transform="matrix(0.7071067690849304,-0.7071067690849304,0.7071067690849304,0.7071067690849304,211.443603515625,204.69808959960938)" opacity="1" style="display: none;"><g opacity="1" transform="matrix(1,0,0,1,0,0)"><path class="primary" fill="rgb(255,199,56)" fill-opacity="1" d=" M-69.00199890136719,7.142000198364258 C-69.00199890136719,-34.59199905395508 -103.01200103759766,-68.42500305175781 -144.96499633789062,-68.42500305175781 C-186.91799926757812,-68.42500305175781 -220.927001953125,-34.59199905395508 -220.927001953125,7.142000198364258 C-220.927001953125,48.875999450683594 -186.91799926757812,82.70800018310547 -144.96499633789062,82.70800018310547 C-103.01200103759766,82.70800018310547 -69.00199890136719,48.875999450683594 -69.00199890136719,7.142000198364258z M-99.72200012207031,7.142000198364258 C-99.72200012207031,31.999000549316406 -119.97799682617188,52.14799880981445 -144.96499633789062,52.14799880981445 C-169.95199584960938,52.14799880981445 -190.20799255371094,31.999000549316406 -190.20799255371094,7.142000198364258 C-190.20799255371094,-17.71500015258789 -169.95199584960938,-37.8650016784668 -144.96499633789062,-37.8650016784668 C-119.97799682617188,-37.8650016784668 -99.72200012207031,-17.71500015258789 -99.72200012207031,7.142000198364258z"/></g></g><g transform="matrix(0.7071067690849304,-0.7071067690849304,-0.7071067690849304,-0.7071067690849304,221.54391479492188,216.44540405273438)" opacity="1" style="display: none;"><g opacity="1" transform="matrix(1,0,0,1,0,0)"><path class="primary" fill="rgb(255,199,56)" fill-opacity="1" d=" M-68.87300109863281,20.142000198364258 C-68.87300109863281,20.25200080871582 -102.88200378417969,20.34000015258789 -144.8350067138672,20.34000015258789 C-186.78799438476562,20.34000015258789 -220.79800415039062,20.25200080871582 -220.79800415039062,20.142000198364258 C-220.79800415039062,20.031999588012695 -186.78799438476562,19.94300079345703 -144.8350067138672,19.94300079345703 C-102.88200378417969,19.94300079345703 -68.87300109863281,20.031999588012695 -68.87300109863281,20.142000198364258z M-99.59200286865234,20.142000198364258 C-99.59200286865234,20.07699966430664 -119.8479995727539,20.023000717163086 -144.8350067138672,20.023000717163086 C-169.82200622558594,20.023000717163086 -190.07899475097656,20.07699966430664 -190.07899475097656,20.142000198364258 C-190.07899475097656,20.207000732421875 -169.82200622558594,20.260000228881836 -144.8350067138672,20.260000228881836 C-119.8479995727539,20.260000228881836 -99.59200286865234,20.207000732421875 -99.59200286865234,20.142000198364258z"/></g></g></g><g mask="url(#__lottie_element_60_2)" style="mix-blend-mode: multiply; display: block;"><g clip-path="url(#__lottie_element_57)" transform="matrix(1,0,0,1,0,0)" opacity="0.5"><g transform="matrix(0.7071067690849304,-0.7071067690849304,0.7071067690849304,0.7071067690849304,211.443603515625,204.69808959960938)" opacity="1" style="display: block;"><g opacity="1" transform="matrix(1,0,0,1,0,0)"><path class="primary" fill="rgb(255,199,56)" fill-opacity="1" d=" M-69.00199890136719,7.140999794006348 C-69.00199890136719,49.09400177001953 -103.01200103759766,83.10399627685547 -144.96499633789062,83.10399627685547 C-186.91799926757812,83.10399627685547 -220.927001953125,49.09400177001953 -220.927001953125,7.140999794006348 C-220.927001953125,-34.8120002746582 -186.91799926757812,-68.82099914550781 -144.96499633789062,-68.82099914550781 C-103.01200103759766,-68.82099914550781 -69.00199890136719,-34.8120002746582 -69.00199890136719,7.140999794006348z M-99.72200012207031,7.142000198364258 C-99.72200012207031,-17.844999313354492 -119.97799682617188,-38.10200119018555 -144.96499633789062,-38.10200119018555 C-169.95199584960938,-38.10200119018555 -190.20799255371094,-17.84600067138672 -190.20799255371094,7.140999794006348 C-190.20799255371094,32.12799835205078 -169.95199584960938,52.3849983215332 -144.96499633789062,52.3849983215332 C-119.97799682617188,52.3849983215332 -99.72200012207031,32.12900161743164 -99.72200012207031,7.142000198364258z"/></g></g><g transform="matrix(0.7071067690849304,-0.7071067690849304,0.7071067690849304,0.7071067690849304,211.443603515625,204.69808959960938)" opacity="1" style="display: none;"><g opacity="1" transform="matrix(1,0,0,1,0,0)"><path class="primary" fill="rgb(255,199,56)" fill-opacity="1" d=" M-69.00199890136719,7.142000198364258 C-69.00199890136719,-34.59199905395508 -103.01200103759766,-68.42500305175781 -144.96499633789062,-68.42500305175781 C-186.91799926757812,-68.42500305175781 -220.927001953125,-34.59199905395508 -220.927001953125,7.142000198364258 C-220.927001953125,48.875999450683594 -186.91799926757812,82.70800018310547 -144.96499633789062,82.70800018310547 C-103.01200103759766,82.70800018310547 -69.00199890136719,48.875999450683594 -69.00199890136719,7.142000198364258z M-99.72200012207031,7.142000198364258 C-99.72200012207031,31.999000549316406 -119.97799682617188,52.14799880981445 -144.96499633789062,52.14799880981445 C-169.95199584960938,52.14799880981445 -190.20799255371094,31.999000549316406 -190.20799255371094,7.142000198364258 C-190.20799255371094,-17.71500015258789 -169.95199584960938,-37.8650016784668 -144.96499633789062,-37.8650016784668 C-119.97799682617188,-37.8650016784668 -99.72200012207031,-17.71500015258789 -99.72200012207031,7.142000198364258z"/></g></g><g transform="matrix(0.7071067690849304,-0.7071067690849304,-0.7071067690849304,-0.7071067690849304,221.54391479492188,216.44540405273438)" opacity="1" style="display: none;"><g opacity="1" transform="matrix(1,0,0,1,0,0)"><path class="primary" fill="rgb(255,199,56)" fill-opacity="1" d=" M-68.87300109863281,20.142000198364258 C-68.87300109863281,20.25200080871582 -102.88200378417969,20.34000015258789 -144.8350067138672,20.34000015258789 C-186.78799438476562,20.34000015258789 -220.79800415039062,20.25200080871582 -220.79800415039062,20.142000198364258 C-220.79800415039062,20.031999588012695 -186.78799438476562,19.94300079345703 -144.8350067138672,19.94300079345703 C-102.88200378417969,19.94300079345703 -68.87300109863281,20.031999588012695 -68.87300109863281,20.142000198364258z M-99.59200286865234,20.142000198364258 C-99.59200286865234,20.07699966430664 -119.8479995727539,20.023000717163086 -144.8350067138672,20.023000717163086 C-169.82200622558594,20.023000717163086 -190.07899475097656,20.07699966430664 -190.07899475097656,20.142000198364258 C-190.07899475097656,20.207000732421875 -169.82200622558594,20.260000228881836 -144.8350067138672,20.260000228881836 C-119.8479995727539,20.260000228881836 -99.59200286865234,20.207000732421875 -99.59200286865234,20.142000198364258z"/></g></g></g></g><g transform="matrix(1,0,0,1,215,215)" opacity="1" style="display: block;"><g opacity="1" transform="matrix(1,0,0,1,0,0)"><path stroke-linecap="butt" stroke-linejoin="miter" fill-opacity="0" stroke-miterlimit="4" class="primary" stroke="rgb(255,199,56)" stroke-opacity="1" stroke-width="2" d="M0 0"/></g><g opacity="1" transform="matrix(1,0,0,1,0,0)"><path class="primary" fill="rgb(255,199,56)" fill-opacity="1" d=" M-48,40.75 C-29.5,57.75 -6.308000087738037,115.55599975585938 -50.53900146484375,154.94200134277344 C-101,199.875 -153.375,156 -161.25,143.5 C-161.29400634765625,143.4290008544922 -161.29400634765625,143.1790008544922 -161.25,143.25 C-153.375,155.875 -101.125,200.125 -49.744998931884766,154.24200439453125 C-3.4590001106262207,112.90799713134766 -32.5,55.25 -47.875,40.625 C-47.917999267578125,40.58399963378906 -48.04399871826172,40.709999084472656 -48,40.75z"/></g></g><g transform="matrix(1,0,0,1,215,215)" opacity="1" style="display: none;"><g opacity="1" transform="matrix(1,0,0,1,0,0)"><path stroke-linecap="butt" stroke-linejoin="miter" fill-opacity="0" stroke-miterlimit="4" class="primary" stroke="rgb(255,199,56)" stroke-opacity="1" stroke-width="2" d="M0 0"/></g><g opacity="1" transform="matrix(1,0,0,1,0,0)"><path class="primary" fill="rgb(255,199,56)" fill-opacity="1" d=" M-48.01007843017578,40.73375701904297 C-29.5515193939209,57.695674896240234 -6.486365795135498,115.47079467773438 -50.660980224609375,154.81175231933594 C-101.0474624633789,199.6830596923828 -153.39263916015625,155.9720001220703 -161.25,143.5 C-161.2938995361328,143.42916870117188 -161.2513885498047,143.22259521484375 -161.20748901367188,143.29342651367188 C-153.35012817382812,155.89015197753906 -101.1917495727539,200.03489685058594 -49.82960510253906,154.1508026123047 C-3.5661399364471436,112.83480072021484 -32.505043029785156,55.23992156982422 -47.845603942871094,40.647682189941406 C-47.88850402832031,40.606773376464844 -48.05398178100586,40.69384765625 -48.01007843017578,40.73375701904297z"/></g></g></g></g></svg>